<svg xmlns="http://www.w3.org/2000/svg" width="550" height="445" fill="#e6edf3" viewBox="0 0 550 445"><path d="M346.132 137.725c1.494-2.574 4.826-12.268 5.973-15.389a1143 1143 0 0 1 10.568-27.647 88.2 88.2 0 0 1 14.132-23.792c16.053-19.23 43.163-33.88 65.94-43.52a418 418 0 0 1 21.943-8.534c6.077-2.164 46.877-15.54 50.568-14.047.9 1.712-4.526 19.385-5.2 22.505 5.581-1.338 11.13-2.922 16.708-4.296 1.878-.462 5.087-1.83 6.417-.182.372 2.023-4.944 17.808-5.721 21.861 6.92-1.881 15.546-4.185 22.54-5.614v7.782c-3.364 9.248-6.577 18.96-9.867 28.301l-28.69 82.246-11.086 32.21c-1.744 5.04-3.315 10.217-5.263 15.178-.295.748-.626 1.587-1.4 1.95-1.714.805-14.801-1.288-17.363-1.618-35.451-4.568-74.292-8.522-109.083 1.798a151.5 151.5 0 0 0-30.613 13.203c-5.534 3.089-13.016 7.462-18.067 11.317 2.263 3.338 5.807 7.559 8.404 10.785a1611 1611 0 0 0 18.506 22.334c2.02 2.416 8.163 9.348 9.442 11.58-5.1 6.72-13.915 13.837-22.582 15.023q-1.158.15-2.32.249c-5.244 9.211-18.27 12.922-28.27 12.954-.894.745-2.654 2.229-3.608 2.7-7.065 3.48-20.11 5.794-27.845 4.901-6.46-.746-17.994-2.612-22.379-7.637-10.221.018-18.215-2.088-26.195-9.147-1.177-1.041-2.097-2.518-2.842-3.903-1.88-.223-4.506-.461-6.282-1.037-6.656-2.156-14.417-8.364-18.493-13.926 3.097-4.15 6.573-8.044 9.797-12.093 8.683-10.91 18.165-21.37 26.755-32.331-4.263-4.085-11.746-7.98-16.966-10.916-6.525-3.67-13.144-7.193-20.089-10.014-21.013-8.537-43.982-10.927-66.496-10.457-15.827.33-31.83 1.897-47.541 3.768-6.87.818-13.737 2.05-20.626 2.668-.971.087-2.842.434-3.64-.257-2.101-1.814-40.703-113.779-44.894-125.874-2.089-6.028-4.29-12.024-6.336-18.065C2.757 58.867 1.715 54.676 0 50.974V39.288c6.988 1.3 14.694 4.062 21.668 5.493-1.103-3.922-5.89-19.523-5.937-22.002 1.327-2.063 20.22 3.98 23.502 4.734-.718-2.633-6.246-21.012-5.476-22.443.143-.266.193-.249.475-.32 2.793-.702 12.879 2.615 16.056 3.532 30.767 8.877 66.79 21.073 93.65 38.39 16.626 10.718 30.892 23.863 39.674 41.888 4.397 9.027 7.699 18.86 11.154 28.288 2.536 6.92 4.708 14.285 7.875 20.926 1.08-4.914 1.528-10.207 2.366-15.2 1.917-11.418 5.674-22.129 10.967-32.411.378-.736.78-1.573 1.064-2.351-8.909-11.239-12.674-20.347-12.635-34.798 6.814 8.193 11.554 13.019 21.856 16.999 2.113.816 5.03 1.91 7.253 2.218 4.445-2.468 8.41-4.71 13.25-6.509 15.562-5.784 34.359-6.033 50.346-1.666 2.049.377 5.034 1.834 6.861 2.375 2.192.648 9.467 5.42 11.255 5.317 9.616-.552 20.28-8.616 26.243-14.927.788.305 1.128.495 1.982.518.698-.637.534-.837.749-1.94.609 12.017-5.444 22.966-12.495 32.118 9.91 18.986 11.433 29.82 14.429 50.208m-8.118 52.262c37.333-37.158 78.59-51.685 130.783-54.927l16.291-53.17c4.588-14.568 9.06-29.17 13.427-43.806l5.046-17.095c.52-1.704 1.858-4.34 1.514-6.05-.647-.348-.557-.217-1.428-.155-47.912 12.54-117.62 35.985-135.64 86.196-2.686 7.487-31.366 85.727-30.997 89.178l.308.192zm-257.79-55.063c4.379.365 8.802.58 13.127 1.061 41.162 4.581 81.542 18.624 111.618 48.014 1.377 1.347 5.843 6.152 7.267 6.729-.858-4.055-2.994-9.955-4.369-13.983l-8.615-24.51a3374 3374 0 0 0-13.184-37.11c-4.045-11.008-7.952-22.444-14.427-32.285-7.468-11.351-18.447-21.42-29.857-28.835-23.74-15.427-51.731-25.596-78.641-34.004-4.489-1.403-14.931-4.684-19.27-5.234 2.197 9.29 6.101 20.28 8.796 29.615 8.707 30.17 19.038 60.368 27.555 90.542m137.506 11.054c-.361 6.146.438 12.769 1.15 18.886 2.677 22.956 10.98 46.466 26.503 63.905 6.42 7.213 19.576 19.257 29.046 21.659 3.625-1.054 6.902-2.938 10.11-4.89 12.797-7.782 23.92-20.709 31.106-33.815a117 117 0 0 0 6.915-15.204c4.662-13.208 7.13-24.205 8.129-38.207.209-2.92.696-9.423.257-12.293-1.9-.25-6.39 5.648-8.037 7.019-5.546 4.617-12.807 8.392-19.552 10.984-15.955 6.129-22.236 11.918-28.892 27.506-1.991-3.944-3.44-7.618-5.897-11.368-10.048-15.34-30.739-15.73-43.438-28.001-1.47-1.42-4.76-5.33-6.131-6.078zm96.39-44.843c8.514 14.503-1.466 30.15-18.456 26.382-2.948-.654-6.207-2.984-8.684-4.746-2.175 4.013-2.5 8.231-4.051 12.501-2.294 6.311-5.369 12.604-8.422 18.595-3.145-4.578-7.518-14.801-9.302-20.12-1.207-3.6-1.738-7.362-3.378-11.088-4.759 3.71-9.214 6.163-15.501 5.429-9.538-1.114-16.127-9.221-14.727-18.778.5-3.416 1.533-5.334 3.194-8.206-2.245-1.755-8.857-6.463-11.397-6.94-11.562 19.928-5.648 47.506 15.105 58.41 14.65 7.696 25.192 8.93 35.975 22.78 10.792-14.443 21.744-15.138 36.514-23.327 15.285-8.475 22.2-25.376 19.72-42.496a38 38 0 0 0-.735-3.733c-.934-3.752-2.654-9.034-5.04-12.12-3.597 2.567-7.3 4.955-10.814 7.457M53.13 178.233c11.688-1.602 21.947-1.677 33.479-2.014 31.432-.92 61.647.524 91.525 11.49 4.191 1.538 9.8 3.56 13.606 5.775l1.033.21.058-.254c-1.517-1.286-3.486-2.441-5.155-3.57-33.385-22.571-75.1-29.03-114.67-28.916-4.358.013-9.13.107-13.457-.251-1.222-2.445-2.204-5.982-3.057-8.672l-4.345-13.647-18.672-57.85-5.542-17.662c-.655-2.09-2.108-7.14-2.93-8.97-2.916-1.519-13.301-4.384-16.578-4.64 2.348 9.224 8.043 24.084 11.338 33.6l23.86 68.066c2.703 7.691 7.514 19.731 9.507 27.305M523.953 53.892 502.97 119.43a2327 2327 0 0 1-8.577 27.171c-1.416 4.434-2.934 9.912-4.612 14.124-10.562.173-21.488-.101-32.014.536-35.259 2.135-71.638 10.356-100.489 31.678-.118.088-.245.313-.318.435.274-.094.361-.088.579-.255 38.36-18.265 79.681-17.974 121.042-16.677 5.725.18 11.687 1.002 17.285.977 3.299-10.364 7.297-21.104 10.87-31.43l20.158-57.69c3.36-9.388 6.863-18.75 9.96-28.235.717-2.189 3.029-8.634 3.196-10.535-3.916.352-12.4 2.828-16.098 4.363m-49.435 86.905c-2.832.542-7.833.788-10.865 1.032-4.98.42-9.952.988-14.9 1.703-33.532 5.137-64.751 15.845-91.105 37.764-2.719 2.418-5.086 4.446-7.45 7.25 2.518-1.647 8.997-5.151 10.777-6.742 1.795-.782 4.467-2.453 6.26-3.458 36.076-20.228 76.063-24.143 116.74-23.885 2.877-7.986 5.774-18.129 8.385-26.394l14.72-46.003 9.9-30.767c1.718-5.33 4.82-14.204 5.806-19.491-3.892.469-12.55 2.92-16.156 4.38a7649 7649 0 0 1-22.397 72.78l-6.069 20.325c-1.088 3.64-2.291 8.03-3.646 11.506M311.935 295.393c4.31-1.697 6.29-3.04 9.904-5.993-2.926-5.408-22.707-41.757-24.66-43.368-2.859 2.183-5.745 4.112-8.72 6.126 2.232 9.558 5.392 19.694 8.136 29.133 1.107 3.807 3.634 12.61 5.257 15.761 3.43.018 6.839-.543 10.083-1.659m176.57-96.818c1.248-4.032 3.663-10.007 4.543-13.801-17.818-1.5-40.19-2.137-58.143-1.358-23.825 1.368-56.326 4.858-76.464 18.397 10.148-3.262 20.804-5.913 31.385-7.293 8.134-1.06 16.802-1.222 25.023-1.494a442 442 0 0 1 73.656 5.549m-261.087 90.97c3.816 3.199 6.022 4.246 10.637 6.04 2.742.652 5.549 1.326 8.367 1.55 2.073-3.366 13.098-39.776 13.824-45.145-2.11-1.247-7.666-5.227-9.18-5.838-1.829 3.895-4.304 8.13-6.4 11.951l-11.464 20.77c-1.76 3.177-4.316 7.508-5.784 10.673m76.464-48.341c1.587 4.138 23.236 42.252 24.005 42.66 1.42.755 4.238-.413 5.617-.99.784-.328 1.546-.731 2.295-1.13 2.957-1.436 6.444-3.869 8.76-6.174-1.375-1.896-7.727-9.596-9.12-10.99-3.44-3.445-22.497-28.252-24.404-28.75-2.507 1.6-5.048 3.258-7.153 5.374m-19.54 62.08c3-.668 7.21-1.604 10.01-2.706-.307-1.837-.746-3.394-1.245-5.182-3.676-13.171-7.837-26.282-11.073-39.567-2.107 1.04-5.094 2.627-7.222 3.386-3.037-.788-5.163-2.367-7.968-3.147-1.964 10.056-5.812 21.231-8.52 31.166-1.087 3.984-3.176 9.346-3.927 13.245 9.801 3.591 19.648 5.06 29.945 2.804m-79.885-27.766c2.662 3.028 6.652 5.564 10.314 7.21 1.414.56 4.788 2.074 6.18 1.337.8-.423 22.726-39.246 24.222-43.011-1.896-1.558-5.492-4.588-7.857-4.978-3.578 3.93-7.044 8.51-10.475 12.609-7.45 8.9-14.707 18.13-22.384 26.833m-45.131-86.268c-27.462-7.83-74.773-6.984-103.365-4.29 1.242 4.554 3.205 9.097 4.645 13.61 7.79-.82 15.498-2.011 23.24-2.851a839 839 0 0 1 26.825-2.244c3.301.12 6.977-.108 10.313-.179a508 508 0 0 1 16.354-.075c9.702.124 18.908.596 28.472 2.318 8.4 1.513 16.506 3.938 24.733 6.152-7.897-5.343-21.682-10.862-31.217-12.441m131.066-71.757c.583.715 1.092 1.387 1.77 2.014 3.088 2.302 6.252 3.593 10.178 2.986a11.47 11.47 0 0 0 7.666-4.743c2.535-3.59 2.888-10.591-.496-13.559l-.494-.085c-1.184.552-2.41 1.105-3.581 1.677.932 2.708 1.823 5.187.488 8.026a5.93 5.93 0 0 1-3.472 3.127c-3.8 1.298-6.493-.787-9-3.298a139 139 0 0 0-3.059 3.855m-51.019-13.539c-3.676 5.907-3.646 13.053 2.78 17.007a11.58 11.58 0 0 0 8.98 1.353c2.2-.553 4.043-1.591 5.843-2.95.853-1.076.904-.823 1.075-2.02-.334-1.327-1.759-2.505-2.772-3.528-1.714 1.77-3.758 3.673-6.346 3.508-7.248-.462-7.5-6.334-5.593-11.45-1.293-.776-2.493-1.61-3.967-1.92m-19.901-27.865c8.927 17.153 31.8 19.987 42.659 34.564 3.442 4.622 4.96 8.948 6.972 14.24 5.184-5.021 5.267-4.911 10.571-.023 10.231-25.465 17.92-21.753 38.02-36.26 4.745-3.446 8.993-7.013 11.5-12.426-4.215 1.083-10.376 3.298-14.23 4.068-18.093 3.615-29.028 5.781-38.923 22.555a86 86 0 0 0-1.665 2.953c-14.872-27-30.345-20.673-54.904-29.67M26.41 31.82c.604 3.216 2.525 9.081 3.53 12.384q4.011 13.08 8.284 26.079l21.49 67.352c1.74 5.543 3.84 11.359 5.483 16.836 46.06-1.46 90.452 6.085 128.926 31.177 1.568 1.023 3.395 2.39 4.983 3.27-2.007-3.023-8.667-8.48-11.8-10.917-22.325-17.363-46.696-26.638-74.192-32.184a252 252 0 0 0-25.9-3.802c-3.735-.372-9.35-.59-12.823-1.102-3.448-10.33-6.617-21.648-9.838-32.132a6528 6528 0 0 1-22.194-72.552c-3.226-1.494-12.375-4.11-15.949-4.409m68.96 358.432v36.628q0 4.536 1.927 6.407t6.69 1.871h7.598v8.732h-9.298q-8.619 0-12.928-3.969t-4.31-13.041v-36.628H77v-8.505h8.05v-15.65h10.32v15.65h16.216v8.505Zm84.369 17.01v36.628h-10.206v-35.154q0-9.299-4.65-14.232-4.649-4.933-12.7-4.933-8.165 0-12.985 5.103t-4.82 14.856v34.36H124.06v-83.916h10.32v30.618q3.062-4.763 8.448-7.371t12.077-2.608q7.031 0 12.701 3.005t8.902 9.015 3.232 14.629m73.256 9.412h-49.669q.567 9.185 6.294 14.345t13.891 5.16q6.69 0 11.17-3.119 4.48-3.118 6.294-8.335h11.113q-2.495 8.959-9.98 14.572-7.484 5.614-18.597 5.614-8.845 0-15.82-3.97-6.973-3.968-10.942-11.283t-3.97-16.953q0-9.639 3.856-16.897t10.83-11.17 16.046-3.912q8.845 0 15.65 3.856 6.803 3.855 10.489 10.603 3.685 6.747 3.685 15.252 0 2.948-.34 6.237m-29.937-27.216q-7.825 0-13.325 4.99t-6.294 13.834h39.237q0-5.896-2.608-10.149t-7.088-6.464-9.922-2.211m70.308 23.247q0-9.526 4.139-16.84t11.283-11.227 15.99-3.912 15.989 3.912q7.144 3.913 11.283 11.17 4.14 7.258 4.14 16.897t-4.253 16.953q-4.253 7.315-11.51 11.284-7.258 3.969-16.103 3.969-8.732 0-15.82-3.97-7.087-3.968-11.113-11.283t-4.025-16.953m52.277 0q0-7.484-2.948-12.7-2.949-5.217-7.712-7.769-4.762-2.551-10.319-2.551-5.67 0-10.376 2.551t-7.541 7.768-2.835 12.701q0 7.598 2.778 12.814t7.428 7.768 10.206 2.552 10.433-2.609 7.88-7.824 3.006-12.701m106.936-30.958-19.391 62.143h-10.66l-14.969-49.329-14.968 49.329h-10.66l-19.505-62.143h10.546l14.289 52.164 15.422-52.164h10.546l15.083 52.277 14.061-52.277Zm20.526-21.773v83.916h-10.32v-83.916Z"/></svg>